External Loads File
version=1
nRows=70
nColumns=13
Range=5.000000e-03-10 seconds
endheader
time 	forceRightX 	forceRightY 	forceRightZ 	pointRightX 	pointRightY 	pointRightZ 	forceLeftX 	forceLeftY 	forceLeftZ 	pointLeftX 	pointLeftY 	pointLeftZ 		
2.505000 53.333511 201.977935 -0.000000 0.124754 0.317441 -0.142221 -204.041891 207.050674 -0.000000 0.438632 0.316377 -0.370364
2.510000 60.097138 204.436914 -0.000000 0.125114 0.321413 -0.142244 -212.102256 215.133225 -0.000000 0.438790 0.312327 -0.370416
2.515000 67.380416 205.228997 -0.000000 0.125591 0.325800 -0.142224 -219.605970 223.701727 -0.000000 0.438957 0.307739 -0.370595
2.520000 75.008978 204.138001 -0.000000 0.126136 0.330732 -0.142196 -226.291904 233.295386 -0.000000 0.438817 0.302663 -0.370882
2.525000 82.534501 201.076537 -0.000000 0.126912 0.336111 -0.142126 -232.152978 244.338935 -0.000000 0.438552 0.297224 -0.370536
2.530000 89.535615 196.018504 -0.000000 0.127859 0.341804 -0.142102 -237.125138 257.421192 -0.000000 0.437880 0.291416 -0.370621
2.535000 95.499652 189.077174 -0.000000 0.129173 0.347740 -0.142044 -241.240784 273.104516 -0.000000 0.436950 0.285377 -0.370583
2.540000 100.227606 180.353680 -0.000000 0.130737 0.354218 -0.141981 -244.075002 292.342944 -0.000000 0.435590 0.279090 -0.370589
2.545000 102.713359 170.605175 -0.000000 0.132604 0.360359 -0.141895 -246.599545 314.848383 -0.000000 0.433830 0.272918 -0.370716
2.550000 102.941629 160.287646 -0.000000 0.134862 0.366297 -0.141841 -248.589472 341.337286 -0.000000 0.431561 0.266857 -0.370777
2.555000 100.951188 149.931253 -0.000000 0.137401 0.372117 -0.141790 -249.954229 372.316999 -0.000000 0.428876 0.260894 -0.370869
2.560000 96.867108 140.071449 -0.000000 0.140293 0.377721 -0.141686 -250.834490 407.994242 -0.000000 0.425841 0.255100 -0.370954
2.565000 90.993470 131.110276 -0.000000 0.143430 0.383033 -0.141532 -251.417767 448.366196 -0.000000 0.422356 0.249600 -0.371012
2.570000 83.895919 123.112541 -0.000000 0.146890 0.388215 -0.141465 -251.210381 493.566888 -0.000000 0.418591 0.244218 -0.371073
2.575000 76.032372 115.976092 -0.000000 0.150558 0.393183 -0.141315 -249.660297 543.357293 -0.000000 0.414587 0.238591 -0.371314
2.580000 67.696499 109.549091 -0.000000 0.154469 0.398364 -0.141166 -246.410969 596.924459 -0.000000 0.410484 0.233132 -0.371450
2.585000 58.925080 103.823617 -0.000000 0.158295 0.403246 -0.141195 -242.243672 652.554713 -0.000000 0.406089 0.228002 -0.371496
2.590000 50.217244 98.568138 -0.000000 0.162718 0.407978 -0.140964 -234.870849 709.334937 -0.000000 0.401624 0.222710 -0.371536
2.595000 41.578862 93.872755 -0.000000 0.167130 0.412886 -0.140938 -224.597999 765.030820 -0.000000 0.397092 0.217699 -0.371614
2.600000 33.052148 89.791450 -0.000000 0.171426 0.417436 -0.140916 -211.861322 817.414695 -0.000000 0.392290 0.212934 -0.371690
2.605000 24.845118 86.314885 -0.000000 0.175916 0.421835 -0.140725 -195.575951 864.855282 -0.000000 0.387441 0.208240 -0.371643
2.610000 17.036620 83.499465 -0.000000 0.180756 0.426176 -0.140389 -175.415539 905.760180 -0.000000 0.382478 0.203769 -0.371791
2.615000 9.534813 81.429106 -0.000000 0.185294 0.430510 -0.140549 -153.076914 938.549557 -0.000000 0.377415 0.199499 -0.371987
2.620000 2.431949 80.136722 -0.000000 0.190059 0.434666 -0.140519 -128.635407 962.465620 -0.000000 0.372433 0.195343 -0.372089
2.625000 -4.224685 79.676929 -0.000000 0.195098 0.438686 -0.140052 -102.808864 977.060588 -0.000000 0.367521 0.191424 -0.372213
2.630000 -10.472732 80.099475 -0.000000 0.199737 0.442657 -0.139831 -77.686704 982.162981 -0.000000 0.362591 0.187729 -0.372327
2.635000 -16.079294 81.479122 -0.000000 0.204626 0.446475 -0.139427 -52.294691 978.253527 -0.000000 0.357665 0.184177 -0.372438
2.640000 -21.014753 83.889866 -0.000000 0.209549 0.450044 -0.138964 -27.990866 965.927031 -0.000000 0.352647 0.181001 -0.372553
2.645000 -25.143994 87.455771 -0.000000 0.214696 0.453383 -0.138669 -4.340429 946.182121 -0.000000 0.347670 0.177752 -0.372754
2.650000 -28.618093 92.231956 -0.000000 0.219626 0.456646 -0.138355 16.576494 920.205728 -0.000000 0.342756 0.174863 -0.372899
2.655000 -31.292740 98.304837 -0.000000 0.224769 0.459699 -0.138018 36.324188 889.316490 -0.000000 0.337720 0.172120 -0.372940
2.660000 -33.359499 105.573400 -0.000000 0.229997 0.462421 -0.137644 53.418403 854.894147 -0.000000 0.332868 0.169625 -0.372951
2.665000 -34.683782 113.983124 -0.000000 0.235234 0.465753 -0.137229 69.505290 818.107151 -0.000000 0.327856 0.167295 -0.373079
2.670000 -35.594521 123.333954 -0.000000 0.240514 0.467859 -0.136815 82.778667 780.182682 -0.000000 0.322926 0.165078 -0.373199
2.675000 -35.977861 133.602732 -0.000000 0.245745 0.470278 -0.136499 94.940242 741.855541 -0.000000 0.317848 0.163135 -0.373268
2.680000 -36.043240 144.745343 -0.000000 0.251011 0.472254 -0.136258 105.812466 703.799880 -0.000000 0.312738 0.161238 -0.373438
2.685000 -35.923549 156.822295 -0.000000 0.256345 0.474359 -0.136094 115.956289 666.382393 -0.000000 0.307542 0.159623 -0.373542
2.690000 -35.847712 169.902511 -0.000000 0.261732 0.476215 -0.135905 125.300530 629.846185 -0.000000 0.302269 0.158221 -0.373642
2.695000 -35.661095 184.077389 -0.000000 0.267704 0.477855 -0.135955 134.776464 594.034822 -0.000000 0.296975 0.156978 -0.373813
2.700000 -36.309250 199.093248 -0.000000 0.272757 0.479225 -0.135594 141.502415 559.508330 -0.000000 0.291700 0.155989 -0.373952
2.705000 -36.987950 214.871968 -0.000000 0.278291 0.480394 -0.135405 148.128339 525.496958 -0.000000 0.286401 0.155236 -0.374033
2.710000 -37.884724 230.979122 -0.000000 0.283981 0.481377 -0.135211 153.890711 491.971345 -0.000000 0.281130 0.154665 -0.374177
2.715000 -39.074785 246.899092 -0.000000 0.289575 0.482164 -0.135166 158.427966 458.904659 -0.000000 0.275830 0.154350 -0.374262
2.720000 -40.464218 262.142897 -0.000000 0.295152 0.482806 -0.135161 161.723608 426.294304 -0.000000 0.270567 0.154217 -0.374327
2.725000 -41.954943 276.346452 -0.000000 0.300763 0.483200 -0.135118 163.768203 394.250880 -0.000000 0.265401 0.154291 -0.374457
2.730000 -43.374923 289.376839 -0.000000 0.306313 0.483541 -0.135011 164.671067 362.918482 -0.000000 0.260130 0.154613 -0.374573
2.735000 -44.885963 301.302037 -0.000000 0.311772 0.483557 -0.134928 164.124397 332.690799 -0.000000 0.255074 0.155105 -0.374673
2.740000 -46.140461 312.482644 -0.000000 0.317190 0.483454 -0.134820 162.462852 303.706470 -0.000000 0.250027 0.155820 -0.374797
2.745000 -46.993667 323.385563 -0.000000 0.322525 0.483071 -0.134877 159.743492 276.234717 -0.000000 0.245010 0.156796 -0.374834
2.750000 -47.393848 334.520623 -0.000000 0.327733 0.482461 -0.134675 155.992595 250.569129 -0.000000 0.240096 0.158098 -0.374873
2.755000 -47.269315 346.400908 -0.000000 0.332768 0.481673 -0.134570 151.338341 226.928359 -0.000000 0.235215 0.159469 -0.374899
2.760000 -46.570464 359.499373 -0.000000 0.337582 0.480515 -0.134378 145.985892 205.448487 -0.000000 0.230437 0.161020 -0.375042
2.765000 -45.214811 374.232397 -0.000000 0.342249 0.479134 -0.134146 140.247879 186.136382 -0.000000 0.225693 0.162671 -0.375198
2.770000 -43.201132 390.921572 -0.000000 0.346772 0.477557 -0.133964 134.422833 168.898191 -0.000000 0.220995 0.164635 -0.375383
2.775000 -40.838877 409.746861 -0.000000 0.351090 0.475863 -0.133793 128.667299 153.621053 -0.000000 0.216360 0.166734 -0.375628
2.780000 -38.029416 430.815757 -0.000000 0.355278 0.473823 -0.133501 123.290055 139.980810 -0.000000 0.211748 0.169023 -0.375859
2.785000 -35.013482 454.086812 -0.000000 0.359349 0.471570 -0.133226 118.434580 127.748835 -0.000000 0.207190 0.171579 -0.376070
2.790000 -32.032413 479.412659 -0.000000 0.363307 0.469042 -0.132955 114.220877 116.701242 -0.000000 0.202685 0.174325 -0.376276
2.795000 -29.321295 506.526907 -0.000000 0.367169 0.466291 -0.132743 110.725114 106.637886 -0.000000 0.198230 0.177324 -0.376398
2.800000 -26.963799 535.017017 -0.000000 0.371051 0.463303 -0.132491 107.991103 97.370310 -0.000000 0.193868 0.180634 -0.376587
2.805000 -25.349199 564.276523 -0.000000 0.374870 0.460046 -0.132426 105.937960 88.830282 -0.000000 0.189556 0.184047 -0.376747
2.810000 -24.452821 593.584144 -0.000000 0.378653 0.456569 -0.132271 104.513318 80.925443 -0.000000 0.185320 0.187788 -0.376906
2.815000 -24.809823 622.152237 -0.000000 0.382228 0.452844 -0.132171 103.563668 73.732202 -0.000000 0.181247 0.191753 -0.376977
2.820000 -26.086930 649.274860 -0.000000 0.385778 0.448815 -0.132035 103.048502 67.244868 -0.000000 0.177252 0.195856 -0.377082
2.825000 -28.314676 674.338922 -0.000000 0.389214 0.444556 -0.131840 102.864995 61.575444 -0.000000 0.173410 0.200307 -0.377127
2.830000 -31.654206 696.877373 -0.000000 0.392542 0.440074 -0.131659 102.911408 56.865542 -0.000000 0.169663 0.204850 -0.377211
2.835000 -36.304196 716.591437 -0.000000 0.395461 0.435318 -0.131163 103.135788 53.232621 -0.000000 0.166149 0.209689 -0.377216
2.840000 -41.125732 733.416186 -0.000000 0.398819 0.430398 -0.131245 103.647540 50.557790 -0.000000 0.162757 0.214607 -0.377273
2.845000 -47.013924 747.321294 -0.000000 0.401761 0.425240 -0.131002 104.454831 48.970143 -0.000000 0.159488 0.219705 -0.377253
2.850000 -53.679811 758.452621 -0.000000 0.404523 0.419892 -0.130825 105.677479 48.378032 -0.000000 0.156425 0.224955 -0.377358
